<?xml version="1.0" encoding="utf-8"?>
<svg id="master-artboard" viewBox="0 0 1400 980" version="1.1" xmlns="http://www.w3.org/2000/svg" x="0px" y="0px" style="enable-background:new 0 0 1400 980;" width="1400px" height="980px"><rect id="ee-background" x="0" y="0" width="1400" height="980" style="fill: white; fill-opacity: 0; pointer-events: none;"/><defs><style id="ee-google-fonts">@import url(https://fonts.googleapis.com/css?family=Crete+Round:400,400italic);</style></defs><path d="M 179.78689575195312 263.2799987792969 L 179.78689575195312 292.1199951171875 L 222.20689392089844 292.1199951171875 L 222.20689392089844 263.2799987792969 L 214.78689575195312 263.2799987792969 C 213.38690185546875 263.2799987792969 212.6868896484375 262.58001708984375 212.6868896484375 261.17999267578125 L 212.6868896484375 254.04000854492188 C 212.6868896484375 252.63999938964844 213.38690185546875 251.94000244140625 214.78689575195312 251.94000244140625 L 245.306884765625 251.94000244140625 C 246.70689392089844 251.94000244140625 247.40689086914062 252.63999938964844 247.40689086914062 254.04000854492188 L 247.40689086914062 261.17999267578125 C 247.40689086914062 262.58001708984375 246.70689392089844 263.2799987792969 245.306884765625 263.2799987792969 L 237.88690185546875 263.2799987792969 L 237.88690185546875 335.94000244140625 L 245.306884765625 335.94000244140625 C 246.70689392089844 335.94000244140625 247.40689086914062 336.6400146484375 247.40689086914062 338.0400085449219 L 247.40689086914062 344.8999938964844 C 247.40689086914062 346.29998779296875 246.70689392089844 347 245.306884765625 347 L 214.78689575195312 347 C 213.38690185546875 347 212.6868896484375 346.29998779296875 212.6868896484375 344.8999938964844 L 212.6868896484375 338.0400085449219 C 212.6868896484375 336.6400146484375 213.38690185546875 335.94000244140625 214.78689575195312 335.94000244140625 L 222.20689392089844 335.94000244140625 L 222.20689392089844 304.1600036621094 L 179.78689575195312 304.1600036621094 L 179.78689575195312 335.94000244140625 L 187.20689392089844 335.94000244140625 C 188.6068878173828 335.94000244140625 189.306884765625 336.6400146484375 189.306884765625 338.0400085449219 L 189.306884765625 344.8999938964844 C 189.306884765625 346.29998779296875 188.6068878173828 347 187.20689392089844 347 L 156.6868896484375 347 C 155.28689575195312 347 154.58689880371094 346.29998779296875 154.58689880371094 344.8999938964844 L 154.58689880371094 338.0400085449219 C 154.58689880371094 336.6400146484375 155.28689575195312 335.94000244140625 156.6868896484375 335.94000244140625 L 164.1068878173828 335.94000244140625 L 164.1068878173828 263.2799987792969 L 156.6868896484375 263.2799987792969 C 155.28689575195312 263.2799987792969 154.58689880371094 262.58001708984375 154.58689880371094 261.17999267578125 L 154.58689880371094 254.04000854492188 C 154.58689880371094 252.63999938964844 155.28689575195312 251.94000244140625 156.6868896484375 251.94000244140625 L 187.20689392089844 251.94000244140625 C 188.6068878173828 251.94000244140625 189.306884765625 252.63999938964844 189.306884765625 254.04000854492188 L 189.306884765625 261.17999267578125 C 189.306884765625 262.58001708984375 188.6068878173828 263.2799987792969 187.20689392089844 263.2799987792969 L 179.78689575195312 263.2799987792969 ZM 281.8399353027344 335.94000244140625 L 290.659912109375 335.94000244140625 C 292.0599365234375 335.94000244140625 292.7599182128906 336.6400146484375 292.7599182128906 338.0400085449219 L 292.7599182128906 344.8999938964844 C 292.7599182128906 346.29998779296875 292.0599365234375 347 290.659912109375 347 L 257.3399353027344 347 C 255.93992614746094 347 255.23992919921875 346.29998779296875 255.23992919921875 344.8999938964844 L 255.23992919921875 338.0400085449219 C 255.23992919921875 336.6400146484375 255.93992614746094 335.94000244140625 257.3399353027344 335.94000244140625 C 257.3399353027344 335.94000244140625 260.2799377441406 335.94000244140625 266.159912109375 335.94000244140625 L 266.159912109375 289.17999267578125 L 258.59991455078125 289.17999267578125 C 257.1999206542969 289.17999267578125 256.49993896484375 288.4800109863281 256.49993896484375 287.08001708984375 L 256.49993896484375 279.79998779296875 C 256.49993896484375 278.3999938964844 257.1999206542969 277.70001220703125 258.59991455078125 277.70001220703125 L 279.73992919921875 277.70001220703125 C 281.1399230957031 277.70001220703125 281.8399353027344 278.3999938964844 281.8399353027344 279.79998779296875 L 281.8399353027344 335.94000244140625 M 264.8999328613281 265.239990234375 C 264.8999328613281 265.239990234375 264.45660400390625 264.7733154296875 263.5699157714844 263.8399963378906 C 262.6832580566406 262.90667724609375 262.23992919921875 260.99334716796875 262.23992919921875 258.1000061035156 C 262.23992919921875 255.2066650390625 263.1499328613281 252.8033447265625 264.96990966796875 250.88999938964844 C 266.7899169921875 248.97666931152344 269.2165832519531 248.01998901367188 272.24993896484375 248.01998901367188 C 275.28326416015625 248.01998901367188 277.7099304199219 248.97666931152344 279.5299377441406 250.88999938964844 C 281.34991455078125 252.8033447265625 282.2599182128906 255.2066650390625 282.2599182128906 258.1000061035156 C 282.2599182128906 260.99334716796875 281.32659912109375 263.37335205078125 279.4599304199219 265.239990234375 C 277.59326171875 267.1066589355469 275.14324951171875 268.0400085449219 272.10992431640625 268.0400085449219 C 269.07659912109375 268.0400085449219 266.6732482910156 267.1066589355469 264.8999328613281 265.239990234375 ZM 297.6600646972656 287.08001708984375 L 297.6600646972656 279.79998779296875 C 297.6600646972656 278.3999938964844 298.3600769042969 277.70001220703125 299.76007080078125 277.70001220703125 L 318.9400634765625 277.70001220703125 C 320.1534118652344 277.70001220703125 320.8533935546875 278.3999938964844 321.0400695800781 279.79998779296875 L 322.1600646972656 287.91998291015625 C 327.0133972167969 280.08001708984375 334.29339599609375 276.1600036621094 344.00006103515625 276.1600036621094 C 353.70672607421875 276.1600036621094 360.1000671386719 280.26666259765625 363.1800537109375 288.4800109863281 C 368.2200622558594 280.26666259765625 375.5467224121094 276.1600036621094 385.1600646972656 276.1600036621094 C 399.6267395019531 276.1600036621094 406.86004638671875 284.09332275390625 406.86004638671875 299.9599914550781 L 406.86004638671875 335.94000244140625 L 414.8400573730469 335.94000244140625 C 416.24005126953125 335.94000244140625 416.9400634765625 336.6400146484375 416.9400634765625 338.0400085449219 L 416.9400634765625 344.8999938964844 C 416.9400634765625 346.29998779296875 416.24005126953125 347 414.8400573730469 347 L 384.0400695800781 347 C 382.64007568359375 347 381.9400634765625 346.29998779296875 381.9400634765625 344.8999938964844 L 381.9400634765625 338.0400085449219 C 381.9400634765625 336.6400146484375 382.64007568359375 335.94000244140625 384.0400695800781 335.94000244140625 L 391.1800537109375 335.94000244140625 L 391.1800537109375 306.9599914550781 C 391.1800537109375 301.08001708984375 390.43341064453125 296.78668212890625 388.9400634765625 294.08001708984375 C 387.44671630859375 291.3733215332031 384.4367370605469 290.0199890136719 379.9100646972656 290.0199890136719 C 375.3833923339844 290.0199890136719 371.7667236328125 291.23333740234375 369.06005859375 293.6600036621094 C 366.3533935546875 296.086669921875 365.00006103515625 298.933349609375 365.00006103515625 302.20001220703125 L 365.00006103515625 335.94000244140625 L 371.7200622558594 335.94000244140625 C 373.12005615234375 335.94000244140625 373.820068359375 336.6400146484375 373.820068359375 338.0400085449219 L 373.820068359375 344.8999938964844 C 373.820068359375 346.29998779296875 373.12005615234375 347 371.7200622558594 347 L 343.02008056640625 347 C 341.62005615234375 347 340.9200744628906 346.29998779296875 340.9200744628906 344.8999938964844 L 340.9200744628906 338.0400085449219 C 340.9200744628906 336.6400146484375 341.62005615234375 335.94000244140625 343.02008056640625 335.94000244140625 L 349.320068359375 335.94000244140625 L 349.320068359375 306.9599914550781 C 349.320068359375 301.08001708984375 348.5733947753906 296.78668212890625 347.080078125 294.08001708984375 C 345.58673095703125 291.3733215332031 342.5300598144531 290.0199890136719 337.9100646972656 290.0199890136719 C 333.2900695800781 290.0199890136719 329.6500549316406 291.39666748046875 326.99005126953125 294.1499938964844 C 324.330078125 296.9033203125 323.00006103515625 300.1000061035156 323.00006103515625 303.739990234375 L 323.00006103515625 335.94000244140625 L 331.5400695800781 335.94000244140625 C 332.9400634765625 335.94000244140625 333.64007568359375 336.6400146484375 333.64007568359375 338.0400085449219 L 333.64007568359375 344.8999938964844 C 333.64007568359375 346.29998779296875 332.9400634765625 347 331.5400695800781 347 L 299.9000549316406 347 C 298.50006103515625 347 297.8000793457031 346.29998779296875 297.8000793457031 344.8999938964844 L 297.8000793457031 338.0400085449219 C 297.8000793457031 336.6400146484375 298.50006103515625 335.94000244140625 299.9000549316406 335.94000244140625 L 307.320068359375 335.94000244140625 L 307.320068359375 289.17999267578125 L 299.76007080078125 289.17999267578125 C 298.3600769042969 289.17999267578125 297.6600646972656 288.4800109863281 297.6600646972656 287.08001708984375 ZM 465.09161376953125 305.41998291015625 L 465.09161376953125 300.5199890136719 C 465.09161376953125 293.8933410644531 463.2249755859375 289.739990234375 459.49163818359375 288.05999755859375 C 457.7182922363281 287.3133239746094 455.1516418457031 286.94000244140625 451.7916259765625 286.94000244140625 C 445.4449768066406 286.94000244140625 441.6182861328125 289.9266662597656 440.3116455078125 295.8999938964844 C 440.0316162109375 297.29998779296875 439.3316345214844 298 438.2116394042969 298 L 429.2516174316406 298 C 427.75830078125 298 427.1049499511719 297.29998779296875 427.2916259765625 295.8999938964844 C 427.66497802734375 289.086669921875 430.4183044433594 284.09332275390625 435.5516357421875 280.91998291015625 C 440.6849670410156 277.7466735839844 447.2182922363281 276.1600036621094 455.1516418457031 276.1600036621094 C 471.8583068847656 276.1600036621094 480.2116394042969 283.8133239746094 480.2116394042969 299.1199951171875 L 480.2116394042969 335.94000244140625 L 486.23162841796875 335.94000244140625 C 487.6316223144531 335.94000244140625 488.3316345214844 336.6400146484375 488.3316345214844 338.0400085449219 L 488.3316345214844 344.8999938964844 C 488.3316345214844 346.29998779296875 487.6316223144531 347 486.23162841796875 347 L 469.7116394042969 347 C 468.498291015625 347 467.7983093261719 346.29998779296875 467.61163330078125 344.8999938964844 L 466.6316223144531 338.4599914550781 C 461.59161376953125 345.2733459472656 454.3116455078125 348.67999267578125 444.7916259765625 348.67999267578125 C 438.81829833984375 348.67999267578125 433.87164306640625 347.1166687011719 429.9516296386719 343.989990234375 C 426.0316162109375 340.86334228515625 424.0716247558594 335.8466796875 424.0716247558594 328.94000244140625 C 424.0716247558594 319.88665771484375 427.85162353515625 313.67999267578125 435.41162109375 310.32000732421875 C 441.66497802734375 307.4266662597656 449.1316223144531 305.8399963378906 457.8116455078125 305.55999755859375 C 459.5849609375 305.55999755859375 462.0116271972656 305.5133361816406 465.09161376953125 305.41998291015625 M 465.37164306640625 325.8599853515625 L 465.37164306640625 315.0799865722656 C 456.41162109375 315.0799865722656 450.90496826171875 315.5 448.85162353515625 316.3399963378906 C 446.7983093261719 317.17999267578125 444.9783020019531 318.0199890136719 443.3916320800781 318.8599853515625 C 440.40496826171875 320.4466552734375 438.91162109375 323.3399963378906 438.91162109375 327.5400085449219 C 438.91162109375 333.9800109863281 442.5982971191406 337.20001220703125 449.97161865234375 337.20001220703125 C 454.824951171875 337.20001220703125 458.60498046875 336.0566711425781 461.3116455078125 333.7699890136719 C 464.018310546875 331.48333740234375 465.37164306640625 328.8466796875 465.37164306640625 325.8599853515625 ZM 496.0332946777344 287.2200012207031 L 496.0332946777344 279.79998779296875 C 496.0332946777344 278.3999938964844 496.7333068847656 277.70001220703125 498.13330078125 277.70001220703125 L 517.1732788085938 277.70001220703125 C 518.3865966796875 277.70001220703125 519.13330078125 278.3999938964844 519.4132690429688 279.79998779296875 L 520.6732788085938 287.91998291015625 C 525.8999633789062 280.08001708984375 533.3666381835938 276.1600036621094 543.0733032226562 276.1600036621094 C 557.5399780273438 276.1600036621094 564.7733154296875 284.09332275390625 564.7733154296875 299.9599914550781 L 564.7733154296875 335.94000244140625 L 572.893310546875 335.94000244140625 C 574.2932739257812 335.94000244140625 574.9932861328125 336.6400146484375 574.9932861328125 338.0400085449219 L 574.9932861328125 344.8999938964844 C 574.9932861328125 346.29998779296875 574.2932739257812 347 572.893310546875 347 L 542.373291015625 347 C 540.9732666015625 347 540.2733154296875 346.29998779296875 540.2733154296875 344.8999938964844 L 540.2733154296875 338.0400085449219 C 540.2733154296875 336.6400146484375 540.9732666015625 335.94000244140625 542.373291015625 335.94000244140625 L 549.0933227539062 335.94000244140625 L 549.0933227539062 306.9599914550781 C 549.0933227539062 301.08001708984375 548.3466186523438 296.78668212890625 546.853271484375 294.08001708984375 C 545.3599853515625 291.3733215332031 542.2799682617188 290.0199890136719 537.61328125 290.0199890136719 C 532.9466552734375 290.0199890136719 529.0733032226562 291.41998291015625 525.9932861328125 294.2200012207031 C 522.9132690429688 297.0199890136719 521.373291015625 300.1933288574219 521.373291015625 303.739990234375 L 521.373291015625 335.94000244140625 L 530.0532836914062 335.94000244140625 C 531.4533081054688 335.94000244140625 532.1533203125 336.6400146484375 532.1533203125 338.0400085449219 L 532.1533203125 344.8999938964844 C 532.1533203125 346.29998779296875 531.4533081054688 347 530.0532836914062 347 L 498.2732849121094 347 C 496.873291015625 347 496.1733093261719 346.29998779296875 496.1733093261719 344.8999938964844 L 496.1733093261719 338.0400085449219 C 496.1733093261719 336.6400146484375 496.873291015625 335.94000244140625 498.2732849121094 335.94000244140625 L 505.69329833984375 335.94000244140625 L 505.69329833984375 289.17999267578125 L 498.13330078125 289.17999267578125 C 496.7333068847656 289.17999267578125 496.0332946777344 288.52667236328125 496.0332946777344 287.2200012207031 ZM 584.9285278320312 297.7200012207031 C 584.9285278320312 291.55999755859375 587.3084716796875 286.4266662597656 592.0684814453125 282.32000732421875 C 596.8284912109375 278.21331787109375 602.8485107421875 276.1600036621094 610.1284790039062 276.1600036621094 C 617.4085083007812 276.1600036621094 623.70849609375 277 629.0285034179688 278.67999267578125 C 630.3351440429688 279.0533447265625 630.988525390625 279.8933410644531 630.988525390625 281.20001220703125 L 630.988525390625 296.0400085449219 C 630.988525390625 297.44000244140625 630.2885131835938 298.1400146484375 628.8884887695312 298.1400146484375 L 620.7684936523438 298.1400146484375 C 619.275146484375 298.1400146484375 618.6685180664062 297.44000244140625 618.948486328125 296.0400085449219 L 619.6484985351562 288.8999938964844 C 616.8485107421875 287.40667724609375 613.7684936523438 286.6600036621094 610.4085083007812 286.6600036621094 C 602.9418334960938 286.6600036621094 599.20849609375 289.2733459472656 599.20849609375 294.5 C 599.20849609375 297.2066650390625 600.4218139648438 299.35333251953125 602.8485107421875 300.94000244140625 C 605.275146484375 302.52667236328125 608.2151489257812 303.80999755859375 611.6685180664062 304.7900085449219 C 615.121826171875 305.7699890136719 618.5985107421875 306.8900146484375 622.0985107421875 308.1499938964844 C 625.5985107421875 309.4100036621094 628.5618286132812 311.5566711425781 630.988525390625 314.5899963378906 C 633.4151611328125 317.6233215332031 634.6284790039062 321.47332763671875 634.6284790039062 326.1400146484375 C 634.6284790039062 333.23333740234375 632.1551513671875 338.7633361816406 627.20849609375 342.7300109863281 C 622.2618408203125 346.6966552734375 615.3084716796875 348.67999267578125 606.3485107421875 348.67999267578125 C 600.0951538085938 348.67999267578125 593.51513671875 347.7466735839844 586.6085205078125 345.8800048828125 C 585.3951416015625 345.50665283203125 584.7885131835938 344.6199951171875 584.7885131835938 343.2200012207031 L 584.7885131835938 328.3800048828125 C 584.7885131835938 326.9800109863281 585.488525390625 326.2799987792969 586.8884887695312 326.2799987792969 L 595.0084838867188 326.2799987792969 C 596.4085083007812 326.2799987792969 597.0618286132812 326.9800109863281 596.968505859375 328.3800048828125 L 596.5485229492188 335.6600036621094 C 599.0684814453125 337.52667236328125 602.661865234375 338.4599914550781 607.3284912109375 338.4599914550781 C 615.6351928710938 338.4599914550781 619.7885131835938 335.5199890136719 619.7885131835938 329.6400146484375 C 619.7885131835938 326.6533203125 618.5985107421875 324.2966613769531 616.218505859375 322.57000732421875 C 613.8385009765625 320.84332275390625 610.9451904296875 319.5133361816406 607.5385131835938 318.5799865722656 C 604.1318359375 317.64666748046875 600.7018432617188 316.5966796875 597.2484741210938 315.42999267578125 C 593.795166015625 314.2633361816406 590.8784790039062 312.2099914550781 588.4984741210938 309.2699890136719 C 586.1185302734375 306.33001708984375 584.9285278320312 302.4800109863281 584.9285278320312 297.7200012207031 ZM 641.6287231445312 251.94000244140625 L 641.6287231445312 244.66000366210938 C 641.6287231445312 243.260009765625 642.3287353515625 242.55999755859375 643.728759765625 242.55999755859375 L 664.8687133789062 242.55999755859375 C 666.2687377929688 242.55999755859375 666.96875 243.260009765625 666.96875 244.66000366210938 L 666.96875 287.7799987792969 C 672.1953735351562 280.0333251953125 679.4287109375 276.1600036621094 688.6687622070312 276.1600036621094 C 703.1353759765625 276.1600036621094 710.3687133789062 284.09332275390625 710.3687133789062 299.9599914550781 L 710.3687133789062 335.94000244140625 L 718.6287231445312 335.94000244140625 C 720.0287475585938 335.94000244140625 720.728759765625 336.6400146484375 720.728759765625 338.0400085449219 L 720.728759765625 344.8999938964844 C 720.728759765625 346.29998779296875 720.0287475585938 347 718.6287231445312 347 L 687.96875 347 C 686.5687255859375 347 685.8687133789062 346.29998779296875 685.8687133789062 344.8999938964844 L 685.8687133789062 338.0400085449219 C 685.8687133789062 336.6400146484375 686.5687255859375 335.94000244140625 687.96875 335.94000244140625 L 694.688720703125 335.94000244140625 L 694.688720703125 306.9599914550781 C 694.688720703125 301.08001708984375 693.9420776367188 296.78668212890625 692.44873046875 294.08001708984375 C 690.9553833007812 291.3733215332031 687.8754272460938 290.0199890136719 683.208740234375 290.0199890136719 C 678.5420532226562 290.0199890136719 674.6687622070312 291.41998291015625 671.5887451171875 294.2200012207031 C 668.5087280273438 297.0199890136719 666.96875 300.1933288574219 666.96875 303.739990234375 L 666.96875 335.94000244140625 L 675.5087280273438 335.94000244140625 C 676.9087524414062 335.94000244140625 677.6087646484375 336.6400146484375 677.6087646484375 338.0400085449219 L 677.6087646484375 344.8999938964844 C 677.6087646484375 346.29998779296875 676.9087524414062 347 675.5087280273438 347 L 643.728759765625 347 C 642.3287353515625 347 641.6287231445312 346.29998779296875 641.6287231445312 344.8999938964844 L 641.6287231445312 338.0400085449219 C 641.6287231445312 336.6400146484375 642.3287353515625 335.94000244140625 643.728759765625 335.94000244140625 L 651.2887573242188 335.94000244140625 L 651.2887573242188 254.04000854492188 L 643.728759765625 254.04000854492188 C 642.3287353515625 254.04000854492188 641.6287231445312 253.33999633789062 641.6287231445312 251.94000244140625 ZM 794.0896606445312 335.94000244140625 L 800.2496337890625 335.94000244140625 C 801.649658203125 335.94000244140625 802.349609375 336.6400146484375 802.349609375 338.0400085449219 L 802.349609375 344.8999938964844 C 802.349609375 346.29998779296875 801.649658203125 347 800.2496337890625 347 L 784.5696411132812 347 C 783.4496459960938 347 782.7496337890625 346.29998779296875 782.4696044921875 344.8999938964844 L 781.2096557617188 337.05999755859375 C 775.236328125 344.8066711425781 767.3963012695312 348.67999267578125 757.6896362304688 348.67999267578125 C 742.5696411132812 348.67999267578125 735.0096435546875 340.7466735839844 735.0096435546875 324.8800048828125 L 735.0096435546875 289.17999267578125 L 727.5896606445312 289.17999267578125 C 726.1896362304688 289.17999267578125 725.4896240234375 288.4800109863281 725.4896240234375 287.08001708984375 L 725.4896240234375 279.79998779296875 C 725.4896240234375 278.3999938964844 726.1896362304688 277.70001220703125 727.5896606445312 277.70001220703125 L 748.5896606445312 277.70001220703125 C 749.9896240234375 277.70001220703125 750.6896362304688 278.3999938964844 750.6896362304688 279.79998779296875 L 750.6896362304688 320.67999267578125 C 750.6896362304688 326.2799987792969 751.4129638671875 330.2699890136719 752.859619140625 332.6499938964844 C 754.3062744140625 335.0299987792969 757.3862915039062 336.2200012207031 762.099609375 336.2200012207031 C 766.81298828125 336.2200012207031 770.7096557617188 334.82000732421875 773.7896118164062 332.0199890136719 C 776.86962890625 329.2200012207031 778.40966796875 326.0466613769531 778.40966796875 322.5 L 778.40966796875 289.17999267578125 L 769.5896606445312 289.17999267578125 C 768.1896362304688 289.17999267578125 767.4896240234375 288.4800109863281 767.4896240234375 287.08001708984375 L 767.4896240234375 279.79998779296875 C 767.4896240234375 278.3999938964844 768.1896362304688 277.70001220703125 769.5896606445312 277.70001220703125 L 791.9896240234375 277.70001220703125 C 793.3896484375 277.70001220703125 794.0896606445312 278.3999938964844 794.0896606445312 279.79998779296875 L 794.0896606445312 335.94000244140625 ZM 821.8010864257812 352.32000732421875 L 821.8010864257812 263.2799987792969 L 814.381103515625 263.2799987792969 C 812.9810791015625 263.2799987792969 812.2810668945312 262.58001708984375 812.2810668945312 261.17999267578125 L 812.2810668945312 254.04000854492188 C 812.2810668945312 252.63999938964844 812.9810791015625 251.94000244140625 814.381103515625 251.94000244140625 L 844.9010620117188 251.94000244140625 C 846.3010864257812 251.94000244140625 847.0010986328125 252.63999938964844 847.0010986328125 254.04000854492188 L 847.0010986328125 261.17999267578125 C 847.0010986328125 262.58001708984375 846.3010864257812 263.2799987792969 844.9010620117188 263.2799987792969 L 837.4810791015625 263.2799987792969 L 837.4810791015625 352.8800048828125 C 837.4810791015625 371.3599853515625 828.9411010742188 380.6000061035156 811.861083984375 380.6000061035156 C 805.4210815429688 380.6000061035156 800.1477661132812 379.6199951171875 796.0410766601562 377.6600036621094 C 795.3877563476562 377.3800048828125 795.0610961914062 376.98333740234375 795.0610961914062 376.4700012207031 C 795.0610961914062 375.9566650390625 795.1544189453125 375.4666748046875 795.341064453125 375 L 797.861083984375 367.7200012207031 C 798.3277587890625 366.32000732421875 799.167724609375 365.85333251953125 800.381103515625 366.32000732421875 C 803.5543823242188 367.5333251953125 806.9844360351562 368.1400146484375 810.6710815429688 368.1400146484375 C 814.3577270507812 368.1400146484375 817.1343994140625 366.9266662597656 819.0010986328125 364.5 C 820.8677368164062 362.0733337402344 821.8010864257812 358.0133361816406 821.8010864257812 352.32000732421875 Z" transform="matrix(1.9974172115325928, 0, 0, 1.9974172115325928, -298.0993347167969, -67.73892211914062)" style="fill: rgb(254, 251, 228); white-space: pre; color: rgb(255, 255, 255);"/></svg>