<?xml version="1.0" encoding="utf-8"?>
<svg id="master-artboard" viewBox="0 0 1400 980" version="1.1" xmlns="http://www.w3.org/2000/svg" x="0px" y="0px" style="enable-background:new 0 0 1400 980;" width="1400px" height="980px"><rect id="ee-background" x="0" y="0" width="1400" height="980" style="fill: white; fill-opacity: 0; pointer-events: none;"/><defs><style id="ee-google-fonts">@import url(https://fonts.googleapis.com/css?family=Bree+Serif:400);</style></defs><path d="M 154.66688537597656 345.6700134277344 L 154.66688537597656 343.70001220703125 L 151.4468994140625 343.70001220703125 L 151.4468994140625 346 L 152.1068878173828 346.0299987792969 L 152.1068878173828 347 L 149.34689331054688 347 L 149.34689331054688 346.0799865722656 L 149.72689819335938 346.0400085449219 C 149.9468994140625 346.0199890136719 150.05690002441406 345.913330078125 150.05690002441406 345.7200012207031 L 150.05690002441406 340.42999267578125 L 149.40689086914062 340.3900146484375 L 149.40689086914062 339.42999267578125 L 152.16688537597656 339.42999267578125 L 152.16688537597656 340.3500061035156 L 151.78689575195312 340.3800048828125 C 151.66688537597656 340.3999938964844 151.58023071289062 340.4333190917969 151.52688598632812 340.4800109863281 C 151.4735565185547 340.52667236328125 151.4468994140625 340.6199951171875 151.4468994140625 340.760009765625 L 151.4468994140625 342.5199890136719 L 154.66688537597656 342.5199890136719 L 154.66688537597656 340.42999267578125 L 154.0168914794922 340.3900146484375 L 154.0168914794922 339.42999267578125 L 156.77688598632812 339.42999267578125 L 156.77688598632812 340.3500061035156 L 156.3968963623047 340.3800048828125 C 156.17689514160156 340.40667724609375 156.06689453125 340.5299987792969 156.06689453125 340.75 L 156.06689453125 346 L 156.71688842773438 346.0299987792969 L 156.71688842773438 347 L 153.96688842773438 347 L 153.96688842773438 346.0799865722656 L 154.33689880371094 346.0400085449219 C 154.45022583007812 346.02667236328125 154.53355407714844 345.9966735839844 154.58689880371094 345.95001220703125 C 154.64022827148438 345.89666748046875 154.66688537597656 345.8033447265625 154.66688537597656 345.6700134277344 ZM 159.53439331054688 341.2699890136719 L 159.53439331054688 346.04998779296875 L 160.18438720703125 346.0899963378906 L 160.18438720703125 347 L 157.47439575195312 347 L 157.47439575195312 346.1300048828125 L 157.84439086914062 346.1000061035156 C 158.06439208984375 346.0799865722656 158.1743927001953 345.9599914550781 158.1743927001953 345.739990234375 L 158.1743927001953 342.57000732421875 C 158.1743927001953 342.4433288574219 158.15438842773438 342.3566589355469 158.11439514160156 342.30999755859375 C 158.0743865966797 342.2633361816406 158.0010528564453 342.239990234375 157.89439392089844 342.239990234375 L 157.494384765625 342.2200012207031 L 157.494384765625 341.2699890136719 L 159.53439331054688 341.2699890136719 M 158.09439086914062 340.2900085449219 C 158.09439086914062 340.2900085449219 158.0543975830078 340.25 157.97439575195312 340.1700134277344 C 157.89439392089844 340.0899963378906 157.85438537597656 339.92999267578125 157.85438537597656 339.69000244140625 C 157.85438537597656 339.4433288574219 157.93438720703125 339.239990234375 158.09439086914062 339.0799865722656 C 158.25439453125 338.913330078125 158.46438598632812 338.8299865722656 158.72439575195312 338.8299865722656 C 158.98439025878906 338.8299865722656 159.19439697265625 338.913330078125 159.35438537597656 339.0799865722656 C 159.52105712890625 339.239990234375 159.60438537597656 339.4433288574219 159.60438537597656 339.69000244140625 C 159.60438537597656 339.92999267578125 159.52105712890625 340.1300048828125 159.35438537597656 340.2900085449219 C 159.19439697265625 340.4433288574219 158.98439025878906 340.5199890136719 158.72439575195312 340.5199890136719 C 158.46438598632812 340.5199890136719 158.25439453125 340.4433288574219 158.09439086914062 340.2900085449219 ZM 160.7754364013672 342.19000244140625 L 160.7754364013672 341.2699890136719 L 162.6954345703125 341.2699890136719 L 162.6954345703125 342.010009765625 C 163.12210083007812 341.4033203125 163.7054443359375 341.1000061035156 164.4454345703125 341.1000061035156 C 165.18544006347656 341.1000061035156 165.68544006347656 341.4033203125 165.9454345703125 342.010009765625 C 166.37210083007812 341.4033203125 166.9487762451172 341.1000061035156 167.67544555664062 341.1000061035156 C 168.22210693359375 341.1000061035156 168.64210510253906 341.26666259765625 168.93544006347656 341.6000061035156 C 169.23544311523438 341.9266662597656 169.38543701171875 342.4200134277344 169.38543701171875 343.0799865722656 L 169.38543701171875 346.04998779296875 L 170.03543090820312 346.0899963378906 L 170.03543090820312 347 L 167.325439453125 347 L 167.325439453125 346.1300048828125 L 167.6954345703125 346.1000061035156 C 167.80877685546875 346.086669921875 167.89210510253906 346.0533447265625 167.9454345703125 346 C 167.9921112060547 345.9533386230469 168.01876831054688 345.8666687011719 168.0254364013672 345.739990234375 L 168.0254364013672 343.3800048828125 C 168.0254364013672 342.9599914550781 167.97877502441406 342.6499938964844 167.88543701171875 342.45001220703125 C 167.79209899902344 342.25 167.5687713623047 342.1499938964844 167.21543884277344 342.1499938964844 C 166.8687744140625 342.1499938964844 166.60211181640625 342.25665283203125 166.41543579101562 342.4700012207031 C 166.22877502441406 342.6833190917969 166.13543701171875 342.9666748046875 166.13543701171875 343.32000732421875 L 166.13543701171875 346.04998779296875 L 166.76544189453125 346.0899963378906 L 166.76544189453125 347 L 164.075439453125 347 L 164.075439453125 346.1300048828125 L 164.4554443359375 346.1000061035156 C 164.5687713623047 346.086669921875 164.652099609375 346.0533447265625 164.7054443359375 346 C 164.75877380371094 345.9533386230469 164.7854461669922 345.8599853515625 164.7854461669922 345.7200012207031 L 164.7854461669922 343.3800048828125 C 164.7854461669922 342.9599914550781 164.73544311523438 342.6499938964844 164.63543701171875 342.45001220703125 C 164.54209899902344 342.25 164.3187713623047 342.1499938964844 163.96543884277344 342.1499938964844 C 163.6121063232422 342.1499938964844 163.34544372558594 342.260009765625 163.16543579101562 342.4800109863281 C 162.98544311523438 342.70001220703125 162.8954315185547 342.97332763671875 162.8954315185547 343.29998779296875 L 162.8954315185547 346.04998779296875 L 163.50543212890625 346.0899963378906 L 163.50543212890625 347 L 160.81544494628906 347 L 160.81544494628906 346.1300048828125 L 161.1954345703125 346.1000061035156 C 161.30877685546875 346.086669921875 161.39210510253906 346.0533447265625 161.4454345703125 346 C 161.498779296875 345.9533386230469 161.5254364013672 345.8599853515625 161.5254364013672 345.7200012207031 L 161.5354461669922 345.7200012207031 L 161.5354461669922 342.5799865722656 C 161.5354461669922 342.4533386230469 161.51544189453125 342.36334228515625 161.47543334960938 342.30999755859375 C 161.43544006347656 342.2633361816406 161.3621063232422 342.2366638183594 161.25543212890625 342.2300109863281 L 160.7754364013672 342.19000244140625 ZM 175.81805419921875 341.5 L 175.81805419921875 345.739990234375 C 175.81805419921875 345.8599853515625 175.83804321289062 345.9433288574219 175.8780517578125 345.989990234375 C 175.9180450439453 346.0299987792969 175.9913787841797 346.0566711425781 176.09805297851562 346.07000732421875 L 176.46804809570312 346.0899963378906 L 176.46804809570312 347 L 174.65805053710938 347 L 174.65805053710938 346.3399963378906 L 174.6180419921875 346.3299865722656 C 174.23805236816406 346.8766784667969 173.71804809570312 347.1499938964844 173.05804443359375 347.1499938964844 C 172.2847137451172 347.1499938964844 171.7113800048828 346.9033203125 171.33804321289062 346.4100036621094 C 170.97137451171875 345.9166564941406 170.78805541992188 345.239990234375 170.78805541992188 344.3800048828125 C 170.78805541992188 343.3466796875 171.03805541992188 342.5433349609375 171.53805541992188 341.9700012207031 C 172.03805541992188 341.3900146484375 172.78805541992188 341.1000061035156 173.78805541992188 341.1000061035156 C 174.43472290039062 341.1000061035156 175.11138916015625 341.23333740234375 175.81805419921875 341.5 M 174.498046875 345.19000244140625 L 174.498046875 342.239990234375 C 174.2847137451172 342.1400146484375 173.9913787841797 342.0899963378906 173.6180419921875 342.0899963378906 C 173.11138916015625 342.0899963378906 172.74472045898438 342.2966613769531 172.51805114746094 342.7099914550781 C 172.2847137451172 343.1166687011719 172.1680450439453 343.6600036621094 172.1680450439453 344.3399963378906 C 172.1680450439453 345.5666809082031 172.56471252441406 346.17999267578125 173.35804748535156 346.17999267578125 C 173.69137573242188 346.17999267578125 173.9647216796875 346.0799865722656 174.1780548095703 345.8800048828125 C 174.39138793945312 345.67999267578125 174.498046875 345.45001220703125 174.498046875 345.19000244140625 ZM 177.09620666503906 342.17999267578125 L 177.09620666503906 341.2699890136719 L 179.01620483398438 341.2699890136719 L 179.01620483398438 342.010009765625 C 179.21620178222656 341.7300109863281 179.4795379638672 341.510009765625 179.80621337890625 341.3500061035156 C 180.13287353515625 341.1833190917969 180.4862060546875 341.1000061035156 180.8662109375 341.1000061035156 C 181.43954467773438 341.1000061035156 181.88621520996094 341.26666259765625 182.20620727539062 341.6000061035156 C 182.51954650878906 341.9266662597656 182.67620849609375 342.4200134277344 182.67620849609375 343.0799865722656 L 182.67620849609375 346.04998779296875 L 183.32620239257812 346.0899963378906 L 183.32620239257812 347 L 180.6162109375 347 L 180.6162109375 346.1300048828125 L 180.9862060546875 346.1000061035156 C 181.09954833984375 346.086669921875 181.18287658691406 346.0533447265625 181.2362060546875 346 C 181.28953552246094 345.9533386230469 181.3162078857422 345.8599853515625 181.3162078857422 345.7200012207031 L 181.3162078857422 343.3800048828125 C 181.3162078857422 342.9599914550781 181.25286865234375 342.6499938964844 181.12620544433594 342.45001220703125 C 180.99954223632812 342.25 180.75286865234375 342.1499938964844 180.38621520996094 342.1499938964844 C 180.02621459960938 342.1499938964844 179.7395477294922 342.2633361816406 179.52621459960938 342.489990234375 C 179.31954956054688 342.7166748046875 179.21620178222656 342.9866638183594 179.21620178222656 343.29998779296875 L 179.21620178222656 346.04998779296875 L 179.85621643066406 346.0899963378906 L 179.85621643066406 347 L 177.14620971679688 347 L 177.14620971679688 346.1300048828125 L 177.52621459960938 346.1000061035156 C 177.63954162597656 346.086669921875 177.72286987304688 346.0533447265625 177.77621459960938 346 C 177.8295440673828 345.9533386230469 177.85621643066406 345.8599853515625 177.85621643066406 345.7200012207031 L 177.85621643066406 342.57000732421875 C 177.85621643066406 342.34332275390625 177.76287841796875 342.2266540527344 177.57620239257812 342.2200012207031 L 177.09620666503906 342.17999267578125 ZM 186.978759765625 342.1400146484375 C 186.7987518310547 342.0666809082031 186.57876586914062 342.0299987792969 186.31875610351562 342.0299987792969 C 186.0587615966797 342.0299987792969 185.8520965576172 342.0899963378906 185.69876098632812 342.2099914550781 C 185.53875732421875 342.3299865722656 185.45875549316406 342.47332763671875 185.45875549316406 342.6400146484375 C 185.45875549316406 342.8133239746094 185.48875427246094 342.9466552734375 185.5487518310547 343.0400085449219 C 185.6087646484375 343.1333312988281 185.69876098632812 343.2166748046875 185.81875610351562 343.2900085449219 C 186.00543212890625 343.3900146484375 186.23208618164062 343.47332763671875 186.49876403808594 343.5400085449219 C 186.7654266357422 343.61334228515625 186.96209716796875 343.6700134277344 187.08876037597656 343.7099914550781 C 187.2220916748047 343.75665283203125 187.3854217529297 343.8299865722656 187.57876586914062 343.92999267578125 C 187.7720947265625 344.0233459472656 187.91876220703125 344.1266784667969 188.0187530517578 344.239990234375 C 188.2787628173828 344.52667236328125 188.40875244140625 344.8900146484375 188.40875244140625 345.3299865722656 C 188.40875244140625 345.89666748046875 188.20208740234375 346.3399963378906 187.78875732421875 346.6600036621094 C 187.37542724609375 346.9866638183594 186.8520965576172 347.1499938964844 186.21876525878906 347.1499938964844 C 185.29209899902344 347.1499938964844 184.5920867919922 347.0333251953125 184.11875915527344 346.79998779296875 L 184.11875915527344 345.2099914550781 L 185.1487579345703 345.1300048828125 L 185.1487579345703 345.67999267578125 C 185.1487579345703 346.0133361816406 185.46542358398438 346.17999267578125 186.0987548828125 346.17999267578125 C 186.73875427246094 346.17999267578125 187.0587615966797 345.95001220703125 187.0587615966797 345.489990234375 C 187.0587615966797 345.3166809082031 187.00209045410156 345.17999267578125 186.88876342773438 345.0799865722656 C 186.78208923339844 344.97332763671875 186.67543029785156 344.8999938964844 186.56875610351562 344.8599853515625 C 186.46209716796875 344.82000732421875 186.33541870117188 344.7833251953125 186.1887664794922 344.75 C 186.04209899902344 344.7099914550781 185.8987579345703 344.6700134277344 185.75875854492188 344.6300048828125 C 185.61209106445312 344.5899963378906 185.45875549316406 344.5400085449219 185.2987518310547 344.4800109863281 C 185.13209533691406 344.413330078125 184.95208740234375 344.32000732421875 184.75875854492188 344.20001220703125 C 184.37208557128906 343.9466552734375 184.1787567138672 343.52667236328125 184.1787567138672 342.94000244140625 C 184.1787567138672 342.35333251953125 184.3854217529297 341.8999938964844 184.7987518310547 341.5799865722656 C 185.21876525878906 341.260009765625 185.74542236328125 341.1000061035156 186.37875366210938 341.1000061035156 C 187.0120849609375 341.1000061035156 187.64208984375 341.2533264160156 188.2687530517578 341.55999755859375 L 188.2687530517578 342.9200134277344 L 187.23875427246094 343 L 187.23875427246094 342.5199890136719 C 187.23875427246094 342.3333435058594 187.152099609375 342.2066650390625 186.978759765625 342.1400146484375 ZM 189.82467651367188 345.7200012207031 L 189.82467651367188 340.17999267578125 C 189.82467651367188 340.05999755859375 189.80467224121094 339.9766540527344 189.76466369628906 339.92999267578125 C 189.72467041015625 339.8833312988281 189.65133666992188 339.8566589355469 189.54466247558594 339.8500061035156 L 189.14466857910156 339.8299865722656 L 189.14466857910156 338.8800048828125 L 191.1646728515625 338.8800048828125 L 191.1646728515625 341.94000244140625 C 191.56466674804688 341.3800048828125 192.121337890625 341.1000061035156 192.8346710205078 341.1000061035156 C 193.4080047607422 341.1000061035156 193.85467529296875 341.26666259765625 194.17466735839844 341.6000061035156 C 194.48800659179688 341.9266662597656 194.64466857910156 342.4200134277344 194.64466857910156 343.0799865722656 L 194.64466857910156 346.04998779296875 L 195.29466247558594 346.0899963378906 L 195.29466247558594 347 L 192.5846710205078 347 L 192.5846710205078 346.1300048828125 L 192.9546661376953 346.1000061035156 C 193.06800842285156 346.086669921875 193.15133666992188 346.0533447265625 193.2046661376953 346 C 193.25799560546875 345.9533386230469 193.28466796875 345.8599853515625 193.28466796875 345.7200012207031 L 193.28466796875 343.3800048828125 C 193.28466796875 342.9866638183594 193.22132873535156 342.6833190917969 193.09466552734375 342.4700012207031 C 192.97467041015625 342.25665283203125 192.7346649169922 342.1499938964844 192.37466430664062 342.1499938964844 C 192.00799560546875 342.1499938964844 191.71800231933594 342.260009765625 191.50466918945312 342.4800109863281 C 191.2913360595703 342.7066650390625 191.18466186523438 342.9800109863281 191.18466186523438 343.29998779296875 L 191.18466186523438 346.04998779296875 L 191.82467651367188 346.0899963378906 L 191.82467651367188 347 L 189.1146697998047 347 L 189.1146697998047 346.1300048828125 L 189.4946746826172 346.1000061035156 C 189.60800170898438 346.086669921875 189.6913299560547 346.0533447265625 189.7446746826172 346 C 189.79800415039062 345.9533386230469 189.82467651367188 345.8599853515625 189.82467651367188 345.7200012207031 ZM 201.99862670898438 346.1000061035156 L 201.99862670898438 347 L 200.15863037109375 347 L 200.15863037109375 346.260009765625 C 199.73861694335938 346.85333251953125 199.12196350097656 347.1499938964844 198.30862426757812 347.1499938964844 C 197.13528442382812 347.1499938964844 196.5486297607422 346.49334716796875 196.5486297607422 345.17999267578125 L 196.5486297607422 342.54998779296875 C 196.5486297607422 342.34332275390625 196.4519500732422 342.2366638183594 196.2586212158203 342.2300109863281 L 195.89862060546875 342.2099914550781 L 195.89862060546875 341.2699890136719 L 197.89862060546875 341.2699890136719 L 197.89862060546875 344.8800048828125 C 197.89862060546875 345.2866516113281 197.95529174804688 345.5899963378906 198.06861877441406 345.7900085449219 C 198.1819610595703 345.9966735839844 198.4186248779297 346.1000061035156 198.77862548828125 346.1000061035156 C 199.1319580078125 346.1000061035156 199.4186248779297 345.989990234375 199.6386260986328 345.7699890136719 C 199.85195922851562 345.54998779296875 199.9586181640625 345.2833251953125 199.9586181640625 344.9700012207031 L 199.9586181640625 342.57000732421875 C 199.9586181640625 342.45001220703125 199.93862915039062 342.36334228515625 199.89862060546875 342.30999755859375 C 199.85862731933594 342.2633361816406 199.78529357910156 342.2366638183594 199.67861938476562 342.2300109863281 L 199.30862426757812 342.2099914550781 L 199.30862426757812 341.2699890136719 L 201.31861877441406 341.2699890136719 L 201.31861877441406 345.739990234375 C 201.31861877441406 345.8599853515625 201.338623046875 345.94000244140625 201.3786163330078 345.9800109863281 C 201.41195678710938 346.0199890136719 201.48529052734375 346.04998779296875 201.59861755371094 346.07000732421875 L 201.99862670898438 346.1000061035156 ZM 203.60958862304688 347.1700134277344 C 203.60958862304688 347.1700134277344 203.5429229736328 347.1700134277344 203.4095916748047 347.1700134277344 C 203.27626037597656 347.1700134277344 203.13626098632812 347.0966796875 202.98959350585938 346.95001220703125 C 202.84959411621094 346.8033447265625 202.77960205078125 346.6099853515625 202.77960205078125 346.3699951171875 C 202.77960205078125 346.1300048828125 202.85293579101562 345.9333190917969 202.9995880126953 345.7799987792969 C 203.14625549316406 345.6199951171875 203.3462677001953 345.5400085449219 203.59959411621094 345.5400085449219 C 203.85293579101562 345.5400085449219 204.05625915527344 345.61334228515625 204.2095947265625 345.760009765625 C 204.36293029785156 345.913330078125 204.43959045410156 346.1099853515625 204.43959045410156 346.3500061035156 C 204.43959045410156 346.5833435058594 204.3662567138672 346.7799987792969 204.21958923339844 346.94000244140625 C 204.07958984375 347.09332275390625 203.8762664794922 347.1700134277344 203.60958862304688 347.1700134277344 ZM 209.37310791015625 345.4700012207031 C 209.23977661132812 346.5899963378906 208.48977661132812 347.1499938964844 207.12310791015625 347.1499938964844 C 206.40977478027344 347.1499938964844 205.7731170654297 346.989990234375 205.21311950683594 346.6700134277344 L 205.21311950683594 344.67999267578125 L 206.37310791015625 344.6000061035156 L 206.37310791015625 345.5 C 206.37310791015625 345.61334228515625 206.38978576660156 345.6966552734375 206.42311096191406 345.75 C 206.4497833251953 345.8033447265625 206.52978515625 345.85333251953125 206.66311645507812 345.8999938964844 C 206.78977966308594 345.9533386230469 206.9864501953125 345.9800109863281 207.25311279296875 345.9800109863281 C 207.5264434814453 345.9800109863281 207.72311401367188 345.89666748046875 207.84310913085938 345.7300109863281 C 207.96311950683594 345.57000732421875 208.0231170654297 345.3066711425781 208.0231170654297 344.94000244140625 L 208.0231170654297 340.44000244140625 L 207.13311767578125 340.3900146484375 L 207.13311767578125 339.42999267578125 L 210.12310791015625 339.42999267578125 L 210.12310791015625 340.3500061035156 L 209.7431182861328 340.3800048828125 C 209.5231170654297 340.40667724609375 209.41311645507812 340.52667236328125 209.41311645507812 340.739990234375 L 209.41311645507812 344.2799987792969 C 209.41311645507812 344.82000732421875 209.3997802734375 345.2166748046875 209.37310791015625 345.4700012207031 ZM 212.73068237304688 341.2699890136719 L 212.73068237304688 346.04998779296875 L 213.38067626953125 346.0899963378906 L 213.38067626953125 347 L 210.67068481445312 347 L 210.67068481445312 346.1300048828125 L 211.04067993164062 346.1000061035156 C 211.26068115234375 346.0799865722656 211.3706817626953 345.9599914550781 211.3706817626953 345.739990234375 L 211.3706817626953 342.57000732421875 C 211.3706817626953 342.4433288574219 211.35067749023438 342.3566589355469 211.31068420410156 342.30999755859375 C 211.2706756591797 342.2633361816406 211.1973419189453 342.239990234375 211.09068298339844 342.239990234375 L 210.690673828125 342.2200012207031 L 210.690673828125 341.2699890136719 L 212.73068237304688 341.2699890136719 M 211.29067993164062 340.2900085449219 C 211.29067993164062 340.2900085449219 211.2506866455078 340.25 211.17068481445312 340.1700134277344 C 211.09068298339844 340.0899963378906 211.05067443847656 339.92999267578125 211.05067443847656 339.69000244140625 C 211.05067443847656 339.4433288574219 211.13067626953125 339.239990234375 211.29067993164062 339.0799865722656 C 211.45068359375 338.913330078125 211.66067504882812 338.8299865722656 211.92068481445312 338.8299865722656 C 212.18067932128906 338.8299865722656 212.39068603515625 338.913330078125 212.55067443847656 339.0799865722656 C 212.71734619140625 339.239990234375 212.80067443847656 339.4433288574219 212.80067443847656 339.69000244140625 C 212.80067443847656 339.92999267578125 212.71734619140625 340.1300048828125 212.55067443847656 340.2900085449219 C 212.39068603515625 340.4433288574219 212.18067932128906 340.5199890136719 211.92068481445312 340.5199890136719 C 211.66067504882812 340.5199890136719 211.45068359375 340.4433288574219 211.29067993164062 340.2900085449219 ZM 214.74172973632812 345.7200012207031 L 214.74172973632812 340.17999267578125 C 214.74172973632812 340.05999755859375 214.7217254638672 339.9766540527344 214.68173217773438 339.92999267578125 C 214.6417236328125 339.8833312988281 214.56838989257812 339.8566589355469 214.46173095703125 339.8500061035156 L 214.0617218017578 339.8299865722656 L 214.0617218017578 338.8800048828125 L 216.0917205810547 338.8800048828125 L 216.0917205810547 343.80999755859375 C 216.50506591796875 343.7699890136719 216.86839294433594 343.6400146484375 217.18173217773438 343.4200134277344 C 217.49505615234375 343.20001220703125 217.70838928222656 342.913330078125 217.8217315673828 342.55999755859375 C 217.8417205810547 342.4800109863281 217.8517303466797 342.4200134277344 217.8517303466797 342.3800048828125 C 217.8517303466797 342.2466735839844 217.7783966064453 342.17999267578125 217.63172912597656 342.17999267578125 L 217.20172119140625 342.1600036621094 L 217.20172119140625 341.2699890136719 L 219.5617218017578 341.2699890136719 L 219.5617218017578 342.19000244140625 L 219.01173400878906 342.2200012207031 C 218.91172790527344 342.99334716796875 218.57839965820312 343.60333251953125 218.01173400878906 344.04998779296875 L 219.13172912597656 346.04998779296875 L 219.8217315673828 346.0899963378906 L 219.8217315673828 347 L 218.16172790527344 347 L 216.86172485351562 344.6300048828125 C 216.6083984375 344.6966552734375 216.3517303466797 344.75 216.0917205810547 344.7900085449219 L 216.0917205810547 346.04998779296875 L 216.1017303466797 346.04998779296875 L 216.75172424316406 346.0899963378906 L 216.75172424316406 347 L 214.04173278808594 347 L 214.04173278808594 346.1300048828125 L 214.41172790527344 346.1000061035156 C 214.52505493164062 346.086669921875 214.6083984375 346.0533447265625 214.66172790527344 346 C 214.71505737304688 345.9533386230469 214.74172973632812 345.8599853515625 214.74172973632812 345.7200012207031 ZM 225.48463439941406 341.5 L 225.48463439941406 345.739990234375 C 225.48463439941406 345.8599853515625 225.50462341308594 345.9433288574219 225.5446319580078 345.989990234375 C 225.58462524414062 346.0299987792969 225.657958984375 346.0566711425781 225.76463317871094 346.07000732421875 L 226.13462829589844 346.0899963378906 L 226.13462829589844 347 L 224.3246307373047 347 L 224.3246307373047 346.3399963378906 L 224.2846221923828 346.3299865722656 C 223.90463256835938 346.8766784667969 223.38462829589844 347.1499938964844 222.72462463378906 347.1499938964844 C 221.9512939453125 347.1499938964844 221.37796020507812 346.9033203125 221.00462341308594 346.4100036621094 C 220.63795471191406 345.9166564941406 220.4546356201172 345.239990234375 220.4546356201172 344.3800048828125 C 220.4546356201172 343.3466796875 220.7046356201172 342.5433349609375 221.2046356201172 341.9700012207031 C 221.7046356201172 341.3900146484375 222.4546356201172 341.1000061035156 223.4546356201172 341.1000061035156 C 224.10128784179688 341.1000061035156 224.77796936035156 341.23333740234375 225.48463439941406 341.5 M 224.1646270751953 345.19000244140625 L 224.1646270751953 342.239990234375 C 223.9512939453125 342.1400146484375 223.657958984375 342.0899963378906 223.2846221923828 342.0899963378906 C 222.77796936035156 342.0899963378906 222.4113006591797 342.2966613769531 222.18463134765625 342.7099914550781 C 221.9512939453125 343.1166687011719 221.83462524414062 343.6600036621094 221.83462524414062 344.3399963378906 C 221.83462524414062 345.5666809082031 222.23129272460938 346.17999267578125 223.02462768554688 346.17999267578125 C 223.3579559326172 346.17999267578125 223.6313018798828 346.0799865722656 223.84463500976562 345.8800048828125 C 224.05796813964844 345.67999267578125 224.1646270751953 345.45001220703125 224.1646270751953 345.19000244140625 ZM 229.681396484375 341.1000061035156 C 230.00807189941406 341.1000061035156 230.32139587402344 341.14666748046875 230.62139892578125 341.239990234375 L 230.62139892578125 340.0899963378906 C 230.62139892578125 339.92333984375 230.5214080810547 339.8299865722656 230.32139587402344 339.80999755859375 L 229.83140563964844 339.7799987792969 L 229.83140563964844 338.8800048828125 L 231.95140075683594 338.8800048828125 L 231.95140075683594 345.79998779296875 C 231.95806884765625 345.9800109863281 232.0547332763672 346.07000732421875 232.24139404296875 346.07000732421875 L 232.6313934326172 346.0899963378906 L 232.6313934326172 347 L 230.79139709472656 347 L 230.79139709472656 346.3299865722656 L 230.75140380859375 346.32000732421875 C 230.41140747070312 346.8733215332031 229.8980712890625 347.1499938964844 229.21139526367188 347.1499938964844 C 228.3447265625 347.1499938964844 227.7347412109375 346.8599853515625 227.3813934326172 346.2799987792969 C 227.0680694580078 345.760009765625 226.91140747070312 345.1199951171875 226.91140747070312 344.3599853515625 C 226.91140747070312 343.3733215332031 227.1547393798828 342.5833435058594 227.6414031982422 341.989990234375 C 228.12806701660156 341.39666748046875 228.80807495117188 341.1000061035156 229.681396484375 341.1000061035156 M 230.62139892578125 345.2200012207031 L 230.62139892578125 342.2699890136719 C 230.3480682373047 342.1499938964844 230.05807495117188 342.0899963378906 229.75140380859375 342.0899963378906 C 229.25140380859375 342.0899963378906 228.88473510742188 342.2933349609375 228.65139770507812 342.70001220703125 C 228.4247283935547 343.1000061035156 228.3114013671875 343.6099853515625 228.3114013671875 344.2300109863281 C 228.3114013671875 345.510009765625 228.72140502929688 346.1499938964844 229.54139709472656 346.1499938964844 C 229.8480682373047 346.1499938964844 230.104736328125 346.05999755859375 230.3114013671875 345.8800048828125 C 230.51806640625 345.70001220703125 230.62139892578125 345.4800109863281 230.62139892578125 345.2200012207031 ZM 238.4106903076172 341.5 L 238.4106903076172 345.739990234375 C 238.4106903076172 345.8599853515625 238.43067932128906 345.9433288574219 238.47068786621094 345.989990234375 C 238.51068115234375 346.0299987792969 238.58401489257812 346.0566711425781 238.69068908691406 346.07000732421875 L 239.06068420410156 346.0899963378906 L 239.06068420410156 347 L 237.2506866455078 347 L 237.2506866455078 346.3399963378906 L 237.21067810058594 346.3299865722656 C 236.8306884765625 346.8766784667969 236.31068420410156 347.1499938964844 235.6506805419922 347.1499938964844 C 234.87734985351562 347.1499938964844 234.30401611328125 346.9033203125 233.93067932128906 346.4100036621094 C 233.5640106201172 345.9166564941406 233.3806915283203 345.239990234375 233.3806915283203 344.3800048828125 C 233.3806915283203 343.3466796875 233.6306915283203 342.5433349609375 234.1306915283203 341.9700012207031 C 234.6306915283203 341.3900146484375 235.3806915283203 341.1000061035156 236.3806915283203 341.1000061035156 C 237.02734375 341.1000061035156 237.7040252685547 341.23333740234375 238.4106903076172 341.5 M 237.09068298339844 345.19000244140625 L 237.09068298339844 342.239990234375 C 236.87734985351562 342.1400146484375 236.58401489257812 342.0899963378906 236.21067810058594 342.0899963378906 C 235.7040252685547 342.0899963378906 235.3373565673828 342.2966613769531 235.11068725585938 342.7099914550781 C 234.87734985351562 343.1166687011719 234.76068115234375 343.6600036621094 234.76068115234375 344.3399963378906 C 234.76068115234375 345.5666809082031 235.1573486328125 346.17999267578125 235.95068359375 346.17999267578125 C 236.2840118408203 346.17999267578125 236.55735778808594 346.0799865722656 236.77069091796875 345.8800048828125 C 236.98402404785156 345.67999267578125 237.09068298339844 345.45001220703125 237.09068298339844 345.19000244140625 ZM 240.45745849609375 345.7200012207031 L 240.45745849609375 342.57000732421875 C 240.45745849609375 342.45001220703125 240.4374542236328 342.36334228515625 240.3974609375 342.30999755859375 C 240.35745239257812 342.2633361816406 240.28411865234375 342.2366638183594 240.17745971679688 342.2300109863281 L 239.6974639892578 342.19000244140625 L 239.6974639892578 341.2699890136719 L 241.61746215820312 341.2699890136719 L 241.61746215820312 342.1300048828125 C 241.75746154785156 341.8299865722656 241.97079467773438 341.5833435058594 242.25746154785156 341.3900146484375 C 242.54412841796875 341.1966552734375 242.87745666503906 341.1000061035156 243.25746154785156 341.1000061035156 C 243.6307830810547 341.1000061035156 243.98745727539062 341.1833190917969 244.32745361328125 341.3500061035156 L 244.32745361328125 343.04998779296875 L 243.2674560546875 343.1300048828125 L 243.2674560546875 342.6000061035156 C 243.2674560546875 342.4533386230469 243.2307891845703 342.3599853515625 243.15745544433594 342.32000732421875 C 243.07745361328125 342.2799987792969 242.97412109375 342.260009765625 242.8474578857422 342.260009765625 C 242.54745483398438 342.260009765625 242.30079650878906 342.3699951171875 242.10745239257812 342.5899963378906 C 241.91412353515625 342.8033447265625 241.8174591064453 343.07666015625 241.8174591064453 343.4100036621094 L 241.8174591064453 346.04998779296875 L 242.8074493408203 346.1000061035156 L 242.8074493408203 347 L 239.75746154785156 347 L 239.75746154785156 346.1300048828125 L 240.12745666503906 346.1000061035156 C 240.24078369140625 346.086669921875 240.32412719726562 346.0533447265625 240.37745666503906 346 C 240.4307861328125 345.9533386230469 240.45745849609375 345.8599853515625 240.45745849609375 345.7200012207031 ZM 250.12863159179688 341.5 L 250.12863159179688 345.739990234375 C 250.12863159179688 345.8599853515625 250.14862060546875 345.9433288574219 250.18862915039062 345.989990234375 C 250.22862243652344 346.0299987792969 250.3019561767578 346.0566711425781 250.40863037109375 346.07000732421875 L 250.77862548828125 346.0899963378906 L 250.77862548828125 347 L 248.9686279296875 347 L 248.9686279296875 346.3399963378906 L 248.92861938476562 346.3299865722656 C 248.5486297607422 346.8766784667969 248.02862548828125 347.1499938964844 247.36862182617188 347.1499938964844 C 246.5952911376953 347.1499938964844 246.02195739746094 346.9033203125 245.64862060546875 346.4100036621094 C 245.28195190429688 345.9166564941406 245.0986328125 345.239990234375 245.0986328125 344.3800048828125 C 245.0986328125 343.3466796875 245.3486328125 342.5433349609375 245.8486328125 341.9700012207031 C 246.3486328125 341.3900146484375 247.0986328125 341.1000061035156 248.0986328125 341.1000061035156 C 248.74530029296875 341.1000061035156 249.42196655273438 341.23333740234375 250.12863159179688 341.5 M 248.80862426757812 345.19000244140625 L 248.80862426757812 342.239990234375 C 248.5952911376953 342.1400146484375 248.3019561767578 342.0899963378906 247.92861938476562 342.0899963378906 C 247.42196655273438 342.0899963378906 247.0552978515625 342.2966613769531 246.82862854003906 342.7099914550781 C 246.5952911376953 343.1166687011719 246.47862243652344 343.6600036621094 246.47862243652344 344.3399963378906 C 246.47862243652344 345.5666809082031 246.8752899169922 346.17999267578125 247.6686248779297 346.17999267578125 C 248.001953125 346.17999267578125 248.27529907226562 346.0799865722656 248.48863220214844 345.8800048828125 C 248.70196533203125 345.67999267578125 248.80862426757812 345.45001220703125 248.80862426757812 345.19000244140625 Z" transform="matrix(13.647955894470215, 0, 0, 13.647955894470215, -2033.9976806640625, -3998.62841796875)" style="fill: rgb(254, 251, 228); white-space: pre; color: rgb(254, 251, 228);"/></svg>