<?xml version="1.0" encoding="utf-8"?>
<svg id="master-artboard" viewBox="0 0 1400 980" version="1.1" xmlns="http://www.w3.org/2000/svg" x="0px" y="0px" style="enable-background:new 0 0 1400 980;" width="1400px" height="980px"><rect id="ee-background" x="0" y="0" width="1400" height="980" style="fill: white; fill-opacity: 0; pointer-events: none;"/><defs><style id="ee-google-fonts">@import url(https://fonts.googleapis.com/css?family=Bree+Serif:400);</style></defs><path d="M 154.66688537597656 345.6700134277344 L 154.66688537597656 343.70001220703125 L 151.4468994140625 343.70001220703125 L 151.4468994140625 346 L 152.1068878173828 346.0299987792969 L 152.1068878173828 347 L 149.34689331054688 347 L 149.34689331054688 346.0799865722656 L 149.72689819335938 346.0400085449219 C 149.9468994140625 346.0199890136719 150.05690002441406 345.913330078125 150.05690002441406 345.7200012207031 L 150.05690002441406 340.42999267578125 L 149.40689086914062 340.3900146484375 L 149.40689086914062 339.42999267578125 L 152.16688537597656 339.42999267578125 L 152.16688537597656 340.3500061035156 L 151.78689575195312 340.3800048828125 C 151.66688537597656 340.3999938964844 151.58023071289062 340.4333190917969 151.52688598632812 340.4800109863281 C 151.4735565185547 340.52667236328125 151.4468994140625 340.6199951171875 151.4468994140625 340.760009765625 L 151.4468994140625 342.5199890136719 L 154.66688537597656 342.5199890136719 L 154.66688537597656 340.42999267578125 L 154.0168914794922 340.3900146484375 L 154.0168914794922 339.42999267578125 L 156.77688598632812 339.42999267578125 L 156.77688598632812 340.3500061035156 L 156.3968963623047 340.3800048828125 C 156.17689514160156 340.40667724609375 156.06689453125 340.5299987792969 156.06689453125 340.75 L 156.06689453125 346 L 156.71688842773438 346.0299987792969 L 156.71688842773438 347 L 153.96688842773438 347 L 153.96688842773438 346.0799865722656 L 154.33689880371094 346.0400085449219 C 154.45022583007812 346.02667236328125 154.53355407714844 345.9966735839844 154.58689880371094 345.95001220703125 C 154.64022827148438 345.89666748046875 154.66688537597656 345.8033447265625 154.66688537597656 345.6700134277344 ZM 161.57489013671875 345.4700012207031 C 161.44155883789062 346.5899963378906 160.69155883789062 347.1499938964844 159.32489013671875 347.1499938964844 C 158.61155700683594 347.1499938964844 157.9748992919922 346.989990234375 157.41490173339844 346.6700134277344 L 157.41490173339844 344.67999267578125 L 158.57489013671875 344.6000061035156 L 158.57489013671875 345.5 C 158.57489013671875 345.61334228515625 158.59156799316406 345.6966552734375 158.62489318847656 345.75 C 158.6515655517578 345.8033447265625 158.7315673828125 345.85333251953125 158.86489868164062 345.8999938964844 C 158.99156188964844 345.9533386230469 159.188232421875 345.9800109863281 159.45489501953125 345.9800109863281 C 159.7282257080078 345.9800109863281 159.92489624023438 345.89666748046875 160.04489135742188 345.7300109863281 C 160.16490173339844 345.57000732421875 160.2248992919922 345.3066711425781 160.2248992919922 344.94000244140625 L 160.2248992919922 340.44000244140625 L 159.33489990234375 340.3900146484375 L 159.33489990234375 339.42999267578125 L 162.32489013671875 339.42999267578125 L 162.32489013671875 340.3500061035156 L 161.9449005126953 340.3800048828125 C 161.7248992919922 340.40667724609375 161.61489868164062 340.52667236328125 161.61489868164062 340.739990234375 L 161.61489868164062 344.2799987792969 C 161.61489868164062 344.82000732421875 161.6015625 345.2166748046875 161.57489013671875 345.4700012207031 ZM 164.9332733154297 341.2699890136719 L 164.9332733154297 346.04998779296875 L 165.58326721191406 346.0899963378906 L 165.58326721191406 347 L 162.87327575683594 347 L 162.87327575683594 346.1300048828125 L 163.24327087402344 346.1000061035156 C 163.46327209472656 346.0799865722656 163.57327270507812 345.9599914550781 163.57327270507812 345.739990234375 L 163.57327270507812 342.57000732421875 C 163.57327270507812 342.4433288574219 163.5532684326172 342.3566589355469 163.51327514648438 342.30999755859375 C 163.4732666015625 342.2633361816406 163.39993286132812 342.239990234375 163.29327392578125 342.239990234375 L 162.8932647705078 342.2200012207031 L 162.8932647705078 341.2699890136719 L 164.9332733154297 341.2699890136719 M 163.49327087402344 340.2900085449219 C 163.49327087402344 340.2900085449219 163.45327758789062 340.25 163.37327575683594 340.1700134277344 C 163.29327392578125 340.0899963378906 163.25326538085938 339.92999267578125 163.25326538085938 339.69000244140625 C 163.25326538085938 339.4433288574219 163.33326721191406 339.239990234375 163.49327087402344 339.0799865722656 C 163.6532745361328 338.913330078125 163.86326599121094 338.8299865722656 164.12327575683594 338.8299865722656 C 164.38327026367188 338.8299865722656 164.59327697753906 338.913330078125 164.75326538085938 339.0799865722656 C 164.91993713378906 339.239990234375 165.00326538085938 339.4433288574219 165.00326538085938 339.69000244140625 C 165.00326538085938 339.92999267578125 164.91993713378906 340.1300048828125 164.75326538085938 340.2900085449219 C 164.59327697753906 340.4433288574219 164.38327026367188 340.5199890136719 164.12327575683594 340.5199890136719 C 163.86326599121094 340.5199890136719 163.6532745361328 340.4433288574219 163.49327087402344 340.2900085449219 ZM 166.94410705566406 345.7200012207031 L 166.94410705566406 340.17999267578125 C 166.94410705566406 340.05999755859375 166.92410278320312 339.9766540527344 166.8841094970703 339.92999267578125 C 166.84410095214844 339.8833312988281 166.77076721191406 339.8566589355469 166.6641082763672 339.8500061035156 L 166.26409912109375 339.8299865722656 L 166.26409912109375 338.8800048828125 L 168.29409790039062 338.8800048828125 L 168.29409790039062 343.80999755859375 C 168.7074432373047 343.7699890136719 169.07077026367188 343.6400146484375 169.3841094970703 343.4200134277344 C 169.6974334716797 343.20001220703125 169.9107666015625 342.913330078125 170.02410888671875 342.55999755859375 C 170.04409790039062 342.4800109863281 170.05410766601562 342.4200134277344 170.05410766601562 342.3800048828125 C 170.05410766601562 342.2466735839844 169.98077392578125 342.17999267578125 169.8341064453125 342.17999267578125 L 169.4040985107422 342.1600036621094 L 169.4040985107422 341.2699890136719 L 171.76409912109375 341.2699890136719 L 171.76409912109375 342.19000244140625 L 171.214111328125 342.2200012207031 C 171.11410522460938 342.99334716796875 170.78077697753906 343.60333251953125 170.214111328125 344.04998779296875 L 171.3341064453125 346.04998779296875 L 172.02410888671875 346.0899963378906 L 172.02410888671875 347 L 170.36410522460938 347 L 169.06410217285156 344.6300048828125 C 168.81077575683594 344.6966552734375 168.55410766601562 344.75 168.29409790039062 344.7900085449219 L 168.29409790039062 346.04998779296875 L 168.30410766601562 346.04998779296875 L 168.9541015625 346.0899963378906 L 168.9541015625 347 L 166.24411010742188 347 L 166.24411010742188 346.1300048828125 L 166.61410522460938 346.1000061035156 C 166.72743225097656 346.086669921875 166.81077575683594 346.0533447265625 166.86410522460938 346 C 166.9174346923828 345.9533386230469 166.94410705566406 345.8599853515625 166.94410705566406 345.7200012207031 ZM 177.6862335205078 341.5 L 177.6862335205078 345.739990234375 C 177.6862335205078 345.8599853515625 177.7062225341797 345.9433288574219 177.74623107910156 345.989990234375 C 177.78622436523438 346.0299987792969 177.85955810546875 346.0566711425781 177.9662322998047 346.07000732421875 L 178.3362274169922 346.0899963378906 L 178.3362274169922 347 L 176.52622985839844 347 L 176.52622985839844 346.3399963378906 L 176.48622131347656 346.3299865722656 C 176.10623168945312 346.8766784667969 175.5862274169922 347.1499938964844 174.9262237548828 347.1499938964844 C 174.15289306640625 347.1499938964844 173.57955932617188 346.9033203125 173.2062225341797 346.4100036621094 C 172.8395538330078 345.9166564941406 172.65623474121094 345.239990234375 172.65623474121094 344.3800048828125 C 172.65623474121094 343.3466796875 172.90623474121094 342.5433349609375 173.40623474121094 341.9700012207031 C 173.90623474121094 341.3900146484375 174.65623474121094 341.1000061035156 175.65623474121094 341.1000061035156 C 176.30288696289062 341.1000061035156 176.9795684814453 341.23333740234375 177.6862335205078 341.5 M 176.36622619628906 345.19000244140625 L 176.36622619628906 342.239990234375 C 176.15289306640625 342.1400146484375 175.85955810546875 342.0899963378906 175.48622131347656 342.0899963378906 C 174.9795684814453 342.0899963378906 174.61289978027344 342.2966613769531 174.38623046875 342.7099914550781 C 174.15289306640625 343.1166687011719 174.03622436523438 343.6600036621094 174.03622436523438 344.3399963378906 C 174.03622436523438 345.5666809082031 174.43289184570312 346.17999267578125 175.22622680664062 346.17999267578125 C 175.55955505371094 346.17999267578125 175.83290100097656 346.0799865722656 176.04623413085938 345.8800048828125 C 176.2595672607422 345.67999267578125 176.36622619628906 345.45001220703125 176.36622619628906 345.19000244140625 ZM 181.8834228515625 341.1000061035156 C 182.21009826660156 341.1000061035156 182.52342224121094 341.14666748046875 182.82342529296875 341.239990234375 L 182.82342529296875 340.0899963378906 C 182.82342529296875 339.92333984375 182.7234344482422 339.8299865722656 182.52342224121094 339.80999755859375 L 182.03343200683594 339.7799987792969 L 182.03343200683594 338.8800048828125 L 184.15342712402344 338.8800048828125 L 184.15342712402344 345.79998779296875 C 184.16009521484375 345.9800109863281 184.2567596435547 346.07000732421875 184.44342041015625 346.07000732421875 L 184.8334197998047 346.0899963378906 L 184.8334197998047 347 L 182.99342346191406 347 L 182.99342346191406 346.3299865722656 L 182.95343017578125 346.32000732421875 C 182.61343383789062 346.8733215332031 182.10009765625 347.1499938964844 181.41342163085938 347.1499938964844 C 180.5467529296875 347.1499938964844 179.936767578125 346.8599853515625 179.5834197998047 346.2799987792969 C 179.2700958251953 345.760009765625 179.11343383789062 345.1199951171875 179.11343383789062 344.3599853515625 C 179.11343383789062 343.3733215332031 179.3567657470703 342.5833435058594 179.8434295654297 341.989990234375 C 180.33009338378906 341.39666748046875 181.01010131835938 341.1000061035156 181.8834228515625 341.1000061035156 M 182.82342529296875 345.2200012207031 L 182.82342529296875 342.2699890136719 C 182.5500946044922 342.1499938964844 182.26010131835938 342.0899963378906 181.95343017578125 342.0899963378906 C 181.45343017578125 342.0899963378906 181.08676147460938 342.2933349609375 180.85342407226562 342.70001220703125 C 180.6267547607422 343.1000061035156 180.513427734375 343.6099853515625 180.513427734375 344.2300109863281 C 180.513427734375 345.510009765625 180.92343139648438 346.1499938964844 181.74342346191406 346.1499938964844 C 182.0500946044922 346.1499938964844 182.3067626953125 346.05999755859375 182.513427734375 345.8800048828125 C 182.7200927734375 345.70001220703125 182.82342529296875 345.4800109863281 182.82342529296875 345.2200012207031 ZM 190.61256408691406 341.5 L 190.61256408691406 345.739990234375 C 190.61256408691406 345.8599853515625 190.63255310058594 345.9433288574219 190.6725616455078 345.989990234375 C 190.71255493164062 346.0299987792969 190.785888671875 346.0566711425781 190.89256286621094 346.07000732421875 L 191.26255798339844 346.0899963378906 L 191.26255798339844 347 L 189.4525604248047 347 L 189.4525604248047 346.3399963378906 L 189.4125518798828 346.3299865722656 C 189.03256225585938 346.8766784667969 188.51255798339844 347.1499938964844 187.85255432128906 347.1499938964844 C 187.0792236328125 347.1499938964844 186.50588989257812 346.9033203125 186.13255310058594 346.4100036621094 C 185.76588439941406 345.9166564941406 185.5825653076172 345.239990234375 185.5825653076172 344.3800048828125 C 185.5825653076172 343.3466796875 185.8325653076172 342.5433349609375 186.3325653076172 341.9700012207031 C 186.8325653076172 341.3900146484375 187.5825653076172 341.1000061035156 188.5825653076172 341.1000061035156 C 189.22921752929688 341.1000061035156 189.90589904785156 341.23333740234375 190.61256408691406 341.5 M 189.2925567626953 345.19000244140625 L 189.2925567626953 342.239990234375 C 189.0792236328125 342.1400146484375 188.785888671875 342.0899963378906 188.4125518798828 342.0899963378906 C 187.90589904785156 342.0899963378906 187.5392303466797 342.2966613769531 187.31256103515625 342.7099914550781 C 187.0792236328125 343.1166687011719 186.96255493164062 343.6600036621094 186.96255493164062 344.3399963378906 C 186.96255493164062 345.5666809082031 187.35922241210938 346.17999267578125 188.15255737304688 346.17999267578125 C 188.4858856201172 346.17999267578125 188.7592315673828 346.0799865722656 188.97256469726562 345.8800048828125 C 189.18589782714844 345.67999267578125 189.2925567626953 345.45001220703125 189.2925567626953 345.19000244140625 ZM 192.65977478027344 345.7200012207031 L 192.65977478027344 342.57000732421875 C 192.65977478027344 342.45001220703125 192.6397705078125 342.36334228515625 192.5997772216797 342.30999755859375 C 192.5597686767578 342.2633361816406 192.48643493652344 342.2366638183594 192.37977600097656 342.2300109863281 L 191.8997802734375 342.19000244140625 L 191.8997802734375 341.2699890136719 L 193.8197784423828 341.2699890136719 L 193.8197784423828 342.1300048828125 C 193.95977783203125 341.8299865722656 194.17311096191406 341.5833435058594 194.45977783203125 341.3900146484375 C 194.74644470214844 341.1966552734375 195.07977294921875 341.1000061035156 195.45977783203125 341.1000061035156 C 195.83309936523438 341.1000061035156 196.1897735595703 341.1833190917969 196.52976989746094 341.3500061035156 L 196.52976989746094 343.04998779296875 L 195.4697723388672 343.1300048828125 L 195.4697723388672 342.6000061035156 C 195.4697723388672 342.4533386230469 195.43310546875 342.3599853515625 195.35977172851562 342.32000732421875 C 195.27976989746094 342.2799987792969 195.1764373779297 342.260009765625 195.04977416992188 342.260009765625 C 194.74977111816406 342.260009765625 194.50311279296875 342.3699951171875 194.3097686767578 342.5899963378906 C 194.11643981933594 342.8033447265625 194.019775390625 343.07666015625 194.019775390625 343.4100036621094 L 194.019775390625 346.04998779296875 L 195.009765625 346.1000061035156 L 195.009765625 347 L 191.95977783203125 347 L 191.95977783203125 346.1300048828125 L 192.32977294921875 346.1000061035156 C 192.44309997558594 346.086669921875 192.5264434814453 346.0533447265625 192.57977294921875 346 C 192.6331024169922 345.9533386230469 192.65977478027344 345.8599853515625 192.65977478027344 345.7200012207031 ZM 202.33116149902344 341.5 L 202.33116149902344 345.739990234375 C 202.33116149902344 345.8599853515625 202.3511505126953 345.9433288574219 202.3911590576172 345.989990234375 C 202.43115234375 346.0299987792969 202.50448608398438 346.0566711425781 202.6111602783203 346.07000732421875 L 202.9811553955078 346.0899963378906 L 202.9811553955078 347 L 201.17115783691406 347 L 201.17115783691406 346.3399963378906 L 201.1311492919922 346.3299865722656 C 200.75115966796875 346.8766784667969 200.2311553955078 347.1499938964844 199.57115173339844 347.1499938964844 C 198.79782104492188 347.1499938964844 198.2244873046875 346.9033203125 197.8511505126953 346.4100036621094 C 197.48448181152344 345.9166564941406 197.30116271972656 345.239990234375 197.30116271972656 344.3800048828125 C 197.30116271972656 343.3466796875 197.55116271972656 342.5433349609375 198.05116271972656 341.9700012207031 C 198.55116271972656 341.3900146484375 199.30116271972656 341.1000061035156 200.30116271972656 341.1000061035156 C 200.94781494140625 341.1000061035156 201.62449645996094 341.23333740234375 202.33116149902344 341.5 M 201.0111541748047 345.19000244140625 L 201.0111541748047 342.239990234375 C 200.79782104492188 342.1400146484375 200.50448608398438 342.0899963378906 200.1311492919922 342.0899963378906 C 199.62449645996094 342.0899963378906 199.25782775878906 342.2966613769531 199.03115844726562 342.7099914550781 C 198.79782104492188 343.1166687011719 198.68115234375 343.6600036621094 198.68115234375 344.3399963378906 C 198.68115234375 345.5666809082031 199.07781982421875 346.17999267578125 199.87115478515625 346.17999267578125 C 200.20448303222656 346.17999267578125 200.4778289794922 346.0799865722656 200.691162109375 345.8800048828125 C 200.9044952392578 345.67999267578125 201.0111541748047 345.45001220703125 201.0111541748047 345.19000244140625 Z" transform="matrix(25.51129913330078, 0, 0, 25.51129913330078, -3792.444091796875, -8208.5234375)" style="fill: rgb(254, 251, 228); white-space: pre; color: rgb(254, 251, 228);"/></svg>